HIERARCHY
ROOT Hips
{
	OFFSET 0.000000 0.000000 0.000000
	CHANNELS 6 Xposition Yposition Zposition Xrotation Yrotation Zrotation
	JOINT LeftUpLeg_virtual
	{
		OFFSET 0.000000 0.000000 0.000000
		CHANNELS 3 Xrotation Yrotation Zrotation
		JOINT LeftUpLeg
		{
			OFFSET 11.394100 -6.187798 -0.413800
			CHANNELS 3 Xrotation Yrotation Zrotation
			JOINT LeftLeg
			{
				OFFSET 0.430247 -32.302673 3.732800
				CHANNELS 3 Xrotation Yrotation Zrotation
				JOINT LeftFoot
				{
					OFFSET -0.430247 -48.264931 -6.423300
					CHANNELS 3 Xrotation Yrotation Zrotation
					JOINT LeftToeBase
					{
						OFFSET 4.230900 -16.068199 23.438400
						CHANNELS 3 Xrotation Yrotation Zrotation
						JOINT LeftToe_End
						{
							OFFSET 4.510700 0.695400 19.974600
							CHANNELS 3 Xrotation Yrotation Zrotation
							End Site
							{
								OFFSET 0 0 0
							}
						}
					}
				}
			}
		}
	}
	JOINT RightUpLeg_virtual
	{
		OFFSET 0.000000 0.000000 0.000000
		CHANNELS 3 Xrotation Yrotation Zrotation
		JOINT RightUpLeg
		{
			OFFSET -11.333700 -6.187798 -0.413800
			CHANNELS 3 Xrotation Yrotation Zrotation
			JOINT RightLeg
			{
				OFFSET -0.430392 -32.302628 3.733000
				CHANNELS 3 Xrotation Yrotation Zrotation
				JOINT RightFoot
				{
					OFFSET 0.430392 -48.264973 -6.423500
					CHANNELS 3 Xrotation Yrotation Zrotation
					JOINT RightToeBase
					{
						OFFSET -4.230900 -16.068199 23.438400
						CHANNELS 3 Xrotation Yrotation Zrotation
						JOINT RightToe_End
						{
							OFFSET -4.510700 0.695400 19.974600
							CHANNELS 3 Xrotation Yrotation Zrotation
							End Site
							{
								OFFSET 0 0 0
							}
						}
					}
				}
			}
		}
	}
	JOINT Spine_virtual
	{
		OFFSET 0.000000 0.000000 0.000000
		CHANNELS 3 Xrotation Yrotation Zrotation
		JOINT Spine
		{
			OFFSET -0.002400 12.777504 0.315300
			CHANNELS 3 Xrotation Yrotation Zrotation
			JOINT Spine1
			{
				OFFSET -0.002067 5.816869 0.032633
				CHANNELS 3 Xrotation Yrotation Zrotation
				JOINT Spine1_split
				{
					OFFSET -0.002067 5.816869 0.032633
					CHANNELS 3 Xrotation Yrotation Zrotation
					JOINT Spine2
					{
						OFFSET -0.002067 5.816869 0.032633
						CHANNELS 3 Xrotation Yrotation Zrotation
						JOINT Neck_virtual
						{
							OFFSET 0.000000 0.000000 0.000000
							CHANNELS 3 Xrotation Yrotation Zrotation
							JOINT Neck
							{
								OFFSET -0.003700 21.199493 -0.826900
								CHANNELS 3 Xrotation Yrotation Zrotation
								JOINT Head
								{
									OFFSET 0.000000 20.442200 4.834800
									CHANNELS 3 Xrotation Yrotation Zrotation
									JOINT HeadTop_End
									{
										OFFSET 0.000000 34.668396 4.968400
										CHANNELS 3 Xrotation Yrotation Zrotation
										End Site
										{
											OFFSET 0 0 0
										}
									}
								}
							}
						}
						JOINT LeftShoulder_virtual
						{
							OFFSET 0.000000 0.000000 0.000000
							CHANNELS 3 Xrotation Yrotation Zrotation
							JOINT LeftShoulder
							{
								OFFSET 3.288150 8.794197 -1.372250
								CHANNELS 3 Xrotation Yrotation Zrotation
								JOINT LeftShoulder_split
								{
									OFFSET 3.288150 8.794197 -1.372250
									CHANNELS 3 Xrotation Yrotation Zrotation
									JOINT LeftArm
									{
										OFFSET 11.953299 -2.279007 -0.146200
										CHANNELS 3 Xrotation Yrotation Zrotation
										JOINT LeftForeArm
										{
											OFFSET 18.448900 0.000000 0.000000
											CHANNELS 3 Xrotation Yrotation Zrotation
											JOINT LeftHand
											{
												OFFSET 29.527798 0.000000 0.000000
												CHANNELS 3 Xrotation Yrotation Zrotation
												End Site
												{
													OFFSET 0 0 0
												}
											}
										}
									}
								}
							}
						}
						JOINT RightShoulder_virtual
						{
							OFFSET 0.000000 0.000000 0.000000
							CHANNELS 3 Xrotation Yrotation Zrotation
							JOINT RightShoulder
							{
								OFFSET -3.249400 8.794197 -1.372250
								CHANNELS 3 Xrotation Yrotation Zrotation
								JOINT RightShoulder_split
								{
									OFFSET -3.249400 8.794197 -1.372250
									CHANNELS 3 Xrotation Yrotation Zrotation
									JOINT RightArm
									{
										OFFSET -11.953299 -2.279007 -0.146200
										CHANNELS 3 Xrotation Yrotation Zrotation
										JOINT RightForeArm
										{
											OFFSET -18.448900 0.000000 0.000000
											CHANNELS 3 Xrotation Yrotation Zrotation
											JOINT RightHand
											{
												OFFSET -29.527802 0.000000 0.000000
												CHANNELS 3 Xrotation Yrotation Zrotation
												End Site
												{
													OFFSET 0 0 0
												}
											}
										}
									}
								}
							}
						}
					}
				}
			}
		}
	}
}
MOTION
Frames: 10
Frame Time: 0.03333333
0.939249 95.703186 -3.777382 0.000000 0.000000 0.000000 -6.520564 -25.768077 1.848399 -17.725388 12.485189 9.710756 31.471138 10.235862 2.339687 -2.571818 17.927951 -11.130154 -1.765112 0.162477 -0.469940 0.000000 0.000000 0.000000 -5.696766 -25.078925 2.178185 -12.019063 -35.045393 -12.775944 35.307925 4.401970 -7.461663 -20.965155 -21.719944 5.426153 -6.647198 0.258425 -0.733762 0.000000 0.000000 0.000000 -6.659529 -27.385594 1.267983 5.233950 -2.794562 -1.236585 1.243596 -2.749223 0.386030 0.704763 0.827905 0.004424 0.000000 0.000000 0.000000 0.833329 -2.425184 0.256574 1.974400 5.425986 -0.322735 0.122403 -19.175848 -3.431161 0.000000 0.000000 0.000000 1.339035 -2.602078 0.102463 -0.063473 -16.134368 -18.461984 -1.832702 -1.533096 -1.975169 16.509351 7.011342 -35.613996 171.419293 -82.179730 170.373304 0.000000 0.000000 0.000000 0.866846 -2.484506 0.273823 0.883930 15.314838 11.386502 2.534510 2.095326 0.105602 3.484181 28.161954 43.172700 -171.881123 83.854615 171.586291 0.000000 0.000000 0.000000 
0.310318 95.893280 -3.555798 0.000000 0.000000 0.000000 -6.726774 -27.491197 1.581651 -16.983498 12.527194 9.932533 32.054023 10.802732 2.170479 -3.013149 18.820393 -10.451770 -2.013320 0.215695 -0.886453 0.000000 0.000000 0.000000 -5.889772 -26.735946 1.922348 -11.513207 -34.659003 -12.341639 34.464544 4.727623 -7.493585 -20.789634 -21.055907 5.186175 -6.580323 0.248840 -0.663736 0.000000 0.000000 0.000000 -6.850219 -28.888299 1.076651 5.272238 -2.703601 -1.171120 1.235973 -2.623729 0.364426 0.661008 0.775268 0.003580 0.000000 0.000000 0.000000 0.813450 -2.314807 0.236365 1.951482 5.477096 -0.300277 0.200671 -19.112584 -3.215864 0.000000 0.000000 0.000000 1.303158 -2.481276 0.079559 -0.072832 -16.154359 -18.409708 -1.744343 -1.522656 -2.075962 15.676334 6.730207 -35.757119 171.518945 -82.502367 170.475921 0.000000 0.000000 0.000000 0.845133 -2.370875 0.230984 0.861430 15.397850 11.315925 2.558012 2.140753 0.108457 3.988343 27.422631 42.474238 -172.877566 83.037875 172.571519 0.000000 0.000000 0.000000 
-0.295716 96.101212 -3.322666 0.000000 0.000000 0.000000 -6.937871 -29.286434 1.323199 -16.660273 12.559837 10.075247 32.705179 11.217154 2.000082 -3.480555 19.311962 -9.546782 -2.340003 0.303099 -1.347616 0.000000 0.000000 0.000000 -6.123429 -28.341388 1.672420 -10.935761 -34.135141 -11.930041 33.608950 4.836302 -7.455035 -20.629231 -20.308309 4.981577 -6.347023 0.222816 -0.637347 0.000000 0.000000 0.000000 -7.025404 -30.285288 0.891413 5.309952 -2.552985 -1.150336 1.218632 -2.485889 0.336359 0.619110 0.678019 0.001120 0.000000 0.000000 0.000000 0.812566 -2.183453 0.212220 1.919579 5.515045 -0.306155 0.251830 -18.903344 -3.030055 0.000000 0.000000 0.000000 1.258100 -2.340530 0.047724 -0.084871 -16.189447 -18.354117 -1.656082 -1.515462 -2.153563 14.877607 6.410482 -35.878359 171.778192 -82.789365 170.736383 0.000000 0.000000 0.000000 0.816299 -2.237590 0.191437 0.846910 15.498823 11.272648 2.529743 2.197981 0.081306 4.534152 26.522955 41.866228 -173.746707 82.170973 173.438884 0.000000 0.000000 0.000000 
-0.878111 96.319847 -3.050007 0.000000 0.000000 0.000000 -7.154093 -31.086998 1.055168 -16.989525 12.530221 10.184347 33.382676 11.334614 1.854798 -3.633205 19.160793 -8.662140 -2.757641 0.402830 -1.781446 0.000000 0.000000 0.000000 -6.353888 -29.854419 1.421650 -10.323285 -33.539190 -11.544603 32.729683 4.731570 -7.354977 -20.435907 -19.501455 4.871504 -6.052432 0.197686 -0.663002 0.000000 0.000000 0.000000 -7.183012 -31.585616 0.704900 5.353823 -2.345235 -1.160084 1.197297 -2.342722 0.301723 0.605124 0.555847 -0.004128 0.000000 0.000000 0.000000 0.834268 -2.037808 0.182233 1.868151 5.538463 -0.326231 0.250814 -18.566816 -2.869809 0.000000 0.000000 0.000000 1.208222 -2.187925 0.007358 -0.095537 -16.221926 -18.300397 -1.572228 -1.506506 -2.203713 14.158658 6.068342 -35.977140 172.129318 -83.040183 171.090310 0.000000 0.000000 0.000000 0.786383 -2.093560 0.154658 0.839237 15.591872 11.250021 2.473578 2.248188 0.031647 5.093443 25.584663 41.331811 -174.517767 81.275863 174.217826 0.000000 0.000000 0.000000 
-1.428363 96.554314 -2.763111 0.000000 0.000000 0.000000 -7.317293 -32.782340 0.799534 -18.063726 12.406880 10.247982 34.009397 11.102328 1.761714 -3.221639 18.220293 -7.928315 -3.187014 0.496796 -2.129219 0.000000 0.000000 0.000000 -6.546635 -31.277823 1.174821 -9.678877 -32.891459 -11.165648 31.807289 4.443509 -7.221078 -20.161682 -18.647429 4.893557 -5.782376 0.184845 -0.707666 0.000000 0.000000 0.000000 -7.284057 -32.816726 0.513966 5.395329 -2.080827 -1.179331 1.174731 -2.195722 0.263788 0.597646 0.425969 -0.007053 0.000000 0.000000 0.000000 0.874428 -1.887418 0.145891 1.799113 5.551360 -0.347092 0.189957 -18.127445 -2.722815 0.000000 0.000000 0.000000 1.166567 -2.029953 -0.037667 -0.102667 -16.227664 -18.254107 -1.512053 -1.504468 -2.248615 13.553961 5.715865 -36.049855 172.496824 -83.256167 171.469823 0.000000 0.000000 0.000000 0.757483 -1.947919 0.119298 0.835474 15.653569 11.246510 2.407015 2.277138 -0.029135 5.628594 24.715772 40.859366 -175.189913 80.406811 174.912662 0.000000 0.000000 0.000000 
-1.957393 96.808411 -2.459389 0.000000 0.000000 0.000000 -7.416904 -34.308330 0.562110 -19.819674 12.198867 10.260220 34.416548 10.537966 1.740737 -2.155285 16.475012 -7.395013 -3.525557 0.562042 -2.324791 0.000000 0.000000 0.000000 -6.676672 -32.610144 0.948057 -9.006492 -32.176017 -10.786039 30.846610 3.991604 -7.084961 -19.794973 -17.762327 5.035162 -5.595803 0.177142 -0.720872 0.000000 0.000000 0.000000 -7.360605 -34.001351 0.304940 5.432956 -1.766941 -1.190149 1.153799 -2.048104 0.224581 0.597825 0.302012 0.000219 0.000000 0.000000 0.000000 0.927287 -1.736642 0.103379 1.712530 5.549474 -0.354920 0.081582 -17.607038 -2.575282 0.000000 0.000000 0.000000 1.136021 -1.871323 -0.083336 -0.105944 -16.196561 -18.225523 -1.457805 -1.512104 -2.281192 13.068669 5.351277 -36.097799 172.762122 -83.431621 171.760843 0.000000 0.000000 0.000000 0.732884 -1.805479 0.085871 0.836812 15.668754 11.259009 2.335540 2.294352 -0.095646 6.097950 23.988005 40.435010 -175.748458 79.635457 175.508254 0.000000 0.000000 0.000000 
-2.471920 97.060280 -2.137417 0.000000 0.000000 0.000000 -7.417994 -35.640863 0.369381 -21.984772 11.929071 10.177998 34.383978 9.748539 1.801880 -0.540586 14.017970 -6.966599 -3.788951 0.574944 -2.321297 0.000000 0.000000 0.000000 -6.720307 -33.864665 0.764682 -8.296317 -31.366735 -10.392887 29.894194 3.394148 -6.964831 -19.324098 -16.869731 5.282406 -5.477289 0.164951 -0.670241 0.000000 0.000000 0.000000 -7.388267 -35.160045 0.102395 5.459605 -1.418130 -1.190495 1.140942 -1.896444 0.183298 0.599608 0.185083 0.024971 0.000000 0.000000 0.000000 0.984281 -1.585251 0.056794 1.608656 5.528121 -0.342697 -0.045744 -17.033845 -2.414943 0.000000 0.000000 0.000000 1.118077 -1.710902 -0.128092 -0.108038 -16.130707 -18.228303 -1.408056 -1.528876 -2.312260 12.681704 4.970834 -36.125875 172.847649 -83.573764 171.891409 0.000000 0.000000 0.000000 0.718385 -1.663865 0.052093 0.846239 15.640419 11.285883 2.286732 2.282457 -0.155329 6.468091 23.430059 40.061614 -176.194811 79.030534 176.000888 0.000000 0.000000 0.000000 
-2.959897 97.278534 -1.834431 0.000000 0.000000 0.000000 -7.307918 -36.808169 0.233273 -24.244568 11.633482 9.985131 33.739932 8.788230 1.932155 1.475844 11.047063 -6.635748 -4.028865 0.527306 -2.061265 0.000000 0.000000 0.000000 -6.718810 -35.049406 0.621236 -7.542082 -30.459526 -9.992044 28.972829 2.682682 -6.868847 -18.770142 -15.988134 5.597366 -5.366864 0.148097 -0.558729 0.000000 0.000000 0.000000 -7.380929 -36.275599 -0.093899 5.477708 -1.053500 -1.179028 1.137964 -1.742023 0.140209 0.593728 0.076349 0.051996 0.000000 0.000000 0.000000 1.035906 -1.432330 0.008415 1.492539 5.492835 -0.311801 -0.144314 -16.427196 -2.229956 0.000000 0.000000 0.000000 1.111152 -1.548640 -0.171312 -0.112521 -16.043397 -18.261440 -1.370126 -1.547486 -2.350041 12.368589 4.558529 -36.141543 172.691170 -83.702875 171.799680 0.000000 0.000000 0.000000 0.711458 -1.519655 0.015446 0.863389 15.579243 11.322879 2.246896 2.246368 -0.212631 6.707173 23.027122 39.759617 -176.525556 78.635053 176.381999 0.000000 0.000000 0.000000 
-3.406449 97.437675 -1.523396 0.000000 0.000000 0.000000 -7.124645 -37.847758 0.151189 -26.277438 11.335923 9.704916 32.503494 7.752970 2.082082 3.700462 7.837339 -6.326187 -4.245410 0.415040 -1.597375 0.000000 0.000000 0.000000 -6.682062 -36.141495 0.515624 -6.776214 -29.457096 -9.591649 28.123323 1.882745 -6.802393 -18.192349 -15.141781 5.938140 -5.189129 0.135658 -0.409783 0.000000 0.000000 0.000000 -7.367982 -37.304038 -0.277727 5.498173 -0.694656 -1.164589 1.149654 -1.586308 0.093416 0.594050 -0.004130 0.081963 0.000000 0.000000 0.000000 1.076579 -1.275662 -0.040092 1.368104 5.446273 -0.273454 -0.172139 -15.807819 -2.017056 0.000000 0.000000 0.000000 1.109108 -1.384440 -0.212614 -0.120316 -15.955353 -18.319074 -1.340390 -1.570857 -2.385018 12.109201 4.110306 -36.147987 172.292314 -83.845531 171.481912 0.000000 0.000000 0.000000 0.715922 -1.368322 -0.025120 0.886659 15.500474 11.358692 2.215495 2.195970 -0.258233 6.816503 22.743207 39.541109 -176.763069 78.445802 176.664427 0.000000 0.000000 0.000000 
-3.772780 97.508957 -1.250366 0.000000 0.000000 0.000000 -6.932075 -38.830271 0.085485 -27.871497 11.085163 9.376178 30.832167 6.790288 2.196986 5.928770 4.746085 -5.965537 -4.351534 0.269434 -1.046951 0.000000 0.000000 0.000000 -6.662193 -37.126388 0.413457 -6.008713 -28.386934 -9.199974 27.324033 1.026022 -6.761498 -17.634871 -14.329846 6.280393 -4.924649 0.140186 -0.263158 0.000000 0.000000 0.000000 -7.381001 -38.244838 -0.460520 5.528009 -0.361668 -1.149958 1.178136 -1.431129 0.044614 0.619496 -0.060317 0.111713 0.000000 0.000000 0.000000 1.104384 -1.118657 -0.085524 1.244832 5.397337 -0.236327 -0.087950 -15.194415 -1.770819 0.000000 0.000000 0.000000 1.113379 -1.220478 -0.251959 -0.129012 -15.878349 -18.389362 -1.322346 -1.588803 -2.426781 11.907868 3.630932 -36.152157 171.715464 -84.026469 170.997105 0.000000 0.000000 0.000000 0.732061 -1.211839 -0.069101 0.908731 15.420113 11.390981 2.178502 2.127291 -0.298226 6.823543 22.533708 39.415126 -176.914330 78.421801 176.850905 0.000000 0.000000 0.000000 
